<svg width="32" height="33" viewBox="0 0 32 33" fill="none" xmlns="http://www.w3.org/2000/svg">
<path d="M23.0612 17.1725L13.0612 27.1725C12.7794 27.4543 12.3972 27.6126 11.9987 27.6126C11.6002 27.6126 11.218 27.4543 10.9362 27.1725C10.6544 26.8907 10.4961 26.5085 10.4961 26.11C10.4961 25.7115 10.6544 25.3293 10.9362 25.0475L19.8749 16.1113L10.9387 7.17252C10.7992 7.03299 10.6885 6.86735 10.613 6.68504C10.5375 6.50274 10.4986 6.30735 10.4986 6.11002C10.4986 5.9127 10.5375 5.71731 10.613 5.535C10.6885 5.3527 10.7992 5.18705 10.9387 5.04752C11.0782 4.90799 11.2439 4.79731 11.4262 4.7218C11.6085 4.64629 11.8039 4.60742 12.0012 4.60742C12.1985 4.60742 12.3939 4.64629 12.5762 4.7218C12.7585 4.79731 12.9242 4.90799 13.0637 5.04752L23.0637 15.0475C23.2034 15.187 23.3141 15.3528 23.3896 15.5352C23.4651 15.7176 23.5039 15.9131 23.5036 16.1105C23.5034 16.308 23.4642 16.5034 23.3883 16.6856C23.3123 16.8679 23.2012 17.0333 23.0612 17.1725Z" fill="#1DBF73"/>
</svg>
