<svg width="32" height="33" viewBox="0 0 32 33" fill="none" xmlns="http://www.w3.org/2000/svg">
<path d="M21.0613 25.05C21.3431 25.3318 21.5014 25.7139 21.5014 26.1125C21.5014 26.511 21.3431 26.8932 21.0613 27.175C20.7795 27.4568 20.3973 27.6151 19.9988 27.6151C19.6003 27.6151 19.2181 27.4568 18.9363 27.175L8.9363 17.175C8.79646 17.0356 8.6855 16.87 8.6098 16.6877C8.53409 16.5054 8.49512 16.3099 8.49512 16.1125C8.49512 15.915 8.53409 15.7196 8.6098 15.5372C8.6855 15.3549 8.79646 15.1893 8.9363 15.05L18.9363 5.04996C19.2181 4.76817 19.6003 4.60986 19.9988 4.60986C20.3973 4.60986 20.7795 4.76817 21.0613 5.04997C21.3431 5.33176 21.5014 5.71395 21.5014 6.11246C21.5014 6.51098 21.3431 6.89317 21.0613 7.17496L12.125 16.1112L21.0613 25.05Z" fill="#F2F2F2"/>
</svg>
