<svg width="25" height="23" viewBox="0 0 25 23" fill="none" xmlns="http://www.w3.org/2000/svg">
<path d="M23.9917 8.42486C23.8378 7.96001 23.4156 7.62985 22.9161 7.58589L16.1308 6.98425L13.4477 0.851691C13.2499 0.402254 12.7993 0.111328 12.2987 0.111328C11.7981 0.111328 11.3476 0.402254 11.1497 0.852742L8.46663 6.98425L1.68027 7.58589C1.18164 7.63091 0.760498 7.96001 0.605708 8.42486C0.450918 8.88971 0.59387 9.39958 0.971069 9.72098L6.09994 14.1134L4.58756 20.619C4.47689 21.0974 4.66701 21.5918 5.07345 21.8787C5.29191 22.0329 5.5475 22.1113 5.80525 22.1113C6.02748 22.1113 6.24791 22.0528 6.44575 21.9372L12.2987 18.5213L18.1495 21.9372C18.5777 22.1887 19.1174 22.1658 19.5229 21.8787C19.9295 21.591 20.1195 21.0963 20.0088 20.619L18.4964 14.1134L23.6253 9.72186C24.0025 9.39958 24.1465 8.89059 23.9917 8.42486Z" fill="#E6EAEF"/>
</svg>
