<svg width="24" height="23" viewBox="0 0 24 23" fill="none" xmlns="http://www.w3.org/2000/svg">
<path d="M23.4475 8.42486C23.2936 7.96001 22.8714 7.62985 22.3719 7.58589L15.5866 6.98425L12.9035 0.851691C12.7057 0.402254 12.2551 0.111328 11.7545 0.111328C11.2539 0.111328 10.8034 0.402254 10.6055 0.852742L7.92244 6.98425L1.13608 7.58589C0.637451 7.63091 0.216308 7.96001 0.0615184 8.42486C-0.0932715 8.88971 0.0496804 9.39958 0.42688 9.72098L5.55575 14.1134L4.04337 20.619C3.9327 21.0974 4.12282 21.5918 4.52926 21.8787C4.74772 22.0329 5.00331 22.1113 5.26106 22.1113C5.48329 22.1113 5.70373 22.0528 5.90156 21.9372L11.7545 18.5213L17.6053 21.9372C18.0335 22.1887 18.5732 22.1658 18.9787 21.8787C19.3853 21.591 19.5753 21.0963 19.4646 20.619L17.9522 14.1134L23.0811 9.72186C23.4583 9.39958 23.6023 8.89059 23.4475 8.42486Z" fill="#FFCB31"/>
</svg>
